<?xml version="1.0" encoding="UTF-8" standalone="no"?>
<svg
   id="svg"
   version="1.1"
   width="314.26999"
   height="314.26999"
   viewBox="0 0 314.26999 314.26999"
   xmlns="http://www.w3.org/2000/svg"
   xmlns:svg="http://www.w3.org/2000/svg">
  <defs
     id="defs1" />
  <g
     id="svgg"
     transform="translate(-37.974443,-42.699496)">
    <path
       id="path0"
       d="m 157.227,124.693 c -7.2,8.618 -8.431,10.237 -12.858,16.909 -15.807,23.819 -22.173,44.356 -21.192,68.359 1.267,30.981 12.791,53.441 40.808,79.533 19.74,18.384 23.102,21.78 28.231,28.513 8.145,10.695 10.549,17.432 10.814,30.302 l 0.179,8.66 3.962,-3.187 c 11.937,-9.601 24.581,-25.548 32.039,-40.404 15.882,-31.638 6.989,-66.754 -25.892,-102.245 -1.195,-1.289 -7.211,-7.529 -13.37,-13.867 -30.371,-31.252 -37.87,-44.628 -38.57,-68.8 l -0.245,-8.449 -3.906,4.676"
       stroke="none"
       fill="#fb730c"
       fill-rule="evenodd" />
    <path
       id="path1"
       d="m 193.072,42.984 c 13.3,18.545 16.9,40.638 10.127,62.154 -4.937,15.683 -19.113,41.316 -30.264,54.723 -2.188,2.631 -2.348,1.963 1.98,8.303 6.024,8.826 11.399,15.016 25.441,29.297 18.003,18.309 26.603,28.718 34.248,41.452 0.481,0.801 1.917,-0.982 8.101,-10.053 14.454,-21.205 22.886,-43.208 23.9,-62.369 0.122,-2.303 0.3,-5.113 0.396,-6.246 0.438,-5.145 -0.884,-19.263 -2.585,-27.613 -6.312,-30.987 -24.693,-58.921 -51.721,-78.603 -6.818,-4.965 -20.978,-12.936 -19.623,-11.045"
       stroke="none"
       fill="#0483db"
       fill-rule="evenodd" />
    <path
       id="path3"
       d="m 266.888,161.328 c 0,0.752 0.08,1.06 0.178,0.684 0.098,-0.376 0.098,-0.991 0,-1.367 -0.098,-0.376 -0.178,-0.069 -0.178,0.683 m -77.435,25.195 c 0.729,0.752 1.413,1.368 1.521,1.368 0.107,0 -0.401,-0.616 -1.13,-1.368 -0.729,-0.752 -1.413,-1.367 -1.521,-1.367 -0.107,0 0.401,0.615 1.13,1.367 m 8.985,9.375 c 1.166,1.182 2.209,2.149 2.317,2.149 0.107,0 -0.76,-0.967 -1.927,-2.149 -1.167,-1.181 -2.21,-2.148 -2.317,-2.148 -0.107,0 0.76,0.967 1.927,2.148 m 5.664,5.665 c 1.708,1.718 3.194,3.125 3.302,3.125 0.107,0 -1.203,-1.407 -2.912,-3.125 -1.708,-1.719 -3.194,-3.125 -3.302,-3.125 -0.107,0 1.203,1.406 2.912,3.125"
       stroke="none"
       fill="#707894"
       fill-rule="evenodd" />
    <path
       id="path4"
       d="m 123.138,199.219 c 0,0.752 0.08,1.059 0.178,0.683 0.098,-0.376 0.098,-0.991 0,-1.367 -0.098,-0.376 -0.178,-0.068 -0.178,0.684 m 0,14.062 c 0,0.752 0.08,1.06 0.178,0.684 0.098,-0.376 0.098,-0.991 0,-1.367 -0.098,-0.376 -0.178,-0.069 -0.178,0.683 m 29.987,65.747 c 0,0.068 0.571,0.639 1.27,1.27 l 1.269,1.147 -1.147,-1.269 c -1.07,-1.184 -1.392,-1.449 -1.392,-1.148 m 8.398,8.472 c 1.059,1.074 2.012,1.953 2.12,1.953 0.107,0 -0.671,-0.879 -1.729,-1.953 -1.058,-1.074 -2.012,-1.953 -2.119,-1.953 -0.107,0 0.67,0.879 1.728,1.953 m 19.922,18.75 c 2.356,2.363 4.372,4.297 4.479,4.297 0.108,0 -1.732,-1.934 -4.088,-4.297 -2.356,-2.363 -4.372,-4.297 -4.479,-4.297 -0.107,0 1.732,1.934 4.088,4.297"
       stroke="none"
       fill="#fcc99a"
       fill-rule="evenodd" />
  </g>
</svg>
